<?xml version="1.0" encoding="utf-8"?>
<!-- Generator: Adobe Illustrator 20.0.0, SVG Export Plug-In . SVG Version: 6.00 Build 0)  -->
<svg version="1.1" id="Layer_1" xmlns="http://www.w3.org/2000/svg" xmlns:xlink="http://www.w3.org/1999/xlink" x="0px" y="0px"
	 viewBox="0 0 22.9 30.7" style="enable-background:new 0 0 22.9 30.7;" xml:space="preserve">
<style type="text/css">
	.st0{fill:#54777B;}
	.st1{fill:#FFFFFF;}
</style>
<path class="st0" d="M11.9,30.7c0,0-11.6-12.2-11.9-19.9C0.1-0.2,11.4,0,11.4,0s11.1-0.3,11.4,10C23.2,19.2,11.9,30.7,11.9,30.7z"/>
<path class="st1" d="M13.4,5.8c1.3,0,2.5-0.1,3.7,0c1.1,0.1,2.1,0.5,2.4,1.7c0.4,1.3,0,2.4-1.2,3.4c1.5,0.8,2,1.5,1.8,2.9
	c-0.2,1.3-1,2-2.5,2.3c-0.2,0-0.4,0.1-0.6,0.1c-1.2,0-2.3,0-3.5,0C13.4,12.8,13.4,9.3,13.4,5.8z M15.1,14.8c0.8-0.1,1.6-0.1,2.3-0.3
	c0.7-0.1,1.1-0.8,0.9-1.4c-0.1-0.4-0.5-1-0.9-1.2c-0.7-0.3-1.5-0.2-2.3-0.3C15.1,12.7,15.1,13.6,15.1,14.8z M15.1,10.2
	c1-0.1,2,0.3,2.5-0.7c0.2-0.4,0.2-1.2-0.1-1.6C16.9,7,16,7.3,15.1,7.3C15.1,8.3,15.1,9.2,15.1,10.2z"/>
<path class="st1" d="M11.2,6.4c-0.3,0.4-0.5,0.8-0.7,1.2C8.3,7,6.5,7.1,5.2,9.1c-0.8,1.3-0.6,2.9,0.4,4.1c1.2,1.4,2.7,1.6,5.3,0.7
	c0.2,0.5,0.4,0.9,0.7,1.4c-1.9,1.5-5.4,1.2-7.1-0.5C2.5,13,2.5,9.7,4.2,7.5C5.7,5.7,9,5,11.2,6.4z"/>
</svg>
